<?xml version="1.0" encoding="UTF-8" standalone="no"?>
<!-- Generated by SVGo

right usb line
138.250,5.000 138.250,11.200
left audio line
36.450,11.200 36.450,5.000

left usb line
130.250,5.000 130.250,11.200
right audio line
47.450,11.200 47.450,5.000


-->

<svg
   xmlns:dc="http://purl.org/dc/elements/1.1/"
   xmlns:cc="http://creativecommons.org/ns#"
   xmlns:rdf="http://www.w3.org/1999/02/22-rdf-syntax-ns#"
   xmlns:svg="http://www.w3.org/2000/svg"
   xmlns="http://www.w3.org/2000/svg"
   xmlns:sodipodi="http://sodipodi.sourceforge.net/DTD/sodipodi-0.dtd"
   xmlns:inkscape="http://www.inkscape.org/namespaces/inkscape"
   width="174.700mm"
   height="117.550mm"
   viewBox="0.000 0.000 174.700 117.550"
   id="svg9740"
   version="1.1"
   inkscape:version="0.91 r13725"
   sodipodi:docname="middle_usb_and_trrc_plate.svg">
  <metadata
     id="metadata9758">
    <rdf:RDF>
      <cc:Work
         rdf:about="">
        <dc:format>image/svg+xml</dc:format>
        <dc:type
           rdf:resource="http://purl.org/dc/dcmitype/StillImage" />
      </cc:Work>
    </rdf:RDF>
  </metadata>
  <defs
     id="defs9756" />
  <sodipodi:namedview
     pagecolor="#ffffff"
     bordercolor="#666666"
     borderopacity="1"
     objecttolerance="10"
     gridtolerance="10"
     guidetolerance="10"
     inkscape:pageopacity="0"
     inkscape:pageshadow="2"
     inkscape:window-width="1150"
     inkscape:window-height="809"
     id="namedview9754"
     showgrid="false"
     inkscape:snap-others="false"
     inkscape:zoom="2.8284271"
     inkscape:cx="416.74729"
     inkscape:cy="351.21307"
     inkscape:window-x="65"
     inkscape:window-y="24"
     inkscape:window-maximized="0"
     inkscape:current-layer="svg9740" />
  <polygon
     points="169.700,7.000 169.694,6.843 169.675,6.687 169.645,6.533 169.602,6.382 169.548,6.235 169.482,6.092 169.405,5.955 169.318,5.824 169.221,5.701 169.114,5.586 168.999,5.479 168.876,5.382 168.745,5.295 168.608,5.218 168.465,5.152 168.318,5.098 168.167,5.055 168.013,5.025 167.857,5.006 167.700,5.000 138.250,5.000 138.250,11.200 163.500,11.200 163.500,106.350 11.200,106.350 11.200,11.200 36.450,11.200 36.450,5.000 7.000,5.000 6.843,5.006 6.687,5.025 6.533,5.055 6.382,5.098 6.235,5.152 6.092,5.218 5.955,5.295 5.824,5.382 5.701,5.479 5.586,5.586 5.479,5.701 5.382,5.824 5.295,5.955 5.218,6.092 5.152,6.235 5.098,6.382 5.055,6.533 5.025,6.687 5.006,6.843 5.000,7.000 5.000,110.550 5.006,110.707 5.025,110.863 5.055,111.017 5.098,111.168 5.152,111.315 5.218,111.458 5.295,111.595 5.382,111.726 5.479,111.849 5.586,111.964 5.701,112.071 5.824,112.168 5.955,112.255 6.092,112.332 6.235,112.398 6.382,112.452 6.533,112.495 6.687,112.525 6.843,112.544 7.000,112.550 167.700,112.550 167.857,112.544 168.013,112.525 168.167,112.495 168.318,112.452 168.465,112.398 168.608,112.332 168.745,112.255 168.876,112.168 168.999,112.071 169.114,111.964 169.221,111.849 169.318,111.726 169.405,111.595 169.482,111.458 169.548,111.315 169.602,111.168 169.645,111.017 169.675,110.863 169.694,110.707 169.700,110.550"
     style="fill:none;stroke-width:0.20009557;stroke:blue;stroke-miterlimit:4;stroke-dasharray:none"
     id="polygon9742" />
  <polygon
     points="130.250,5.000 130.250,11.200 47.450,11.200 47.450,5.000"
     style="fill:none;stroke-width:0.20009557;stroke:blue;stroke-miterlimit:4;stroke-dasharray:none"
     id="polygon9744" />
  <polygon
     points="166.600,7.250 166.863,7.292 167.100,7.412 167.288,7.600 167.408,7.837 167.450,8.100 167.408,8.363 167.288,8.600 167.100,8.788 166.863,8.908 166.600,8.950 166.337,8.908 166.100,8.788 165.912,8.600 165.792,8.363 165.750,8.100 165.792,7.837 165.912,7.600 166.100,7.412 166.337,7.292"
     style="fill:none;stroke-width:0.20009557;stroke:blue;stroke-miterlimit:4;stroke-dasharray:none"
     id="polygon9746" />
  <polygon
     points="166.600,108.600 166.863,108.642 167.100,108.762 167.288,108.950 167.408,109.187 167.450,109.450 167.408,109.713 167.288,109.950 167.100,110.138 166.863,110.258 166.600,110.300 166.337,110.258 166.100,110.138 165.912,109.950 165.792,109.713 165.750,109.450 165.792,109.187 165.912,108.950 166.100,108.762 166.337,108.642"
     style="fill:none;stroke-width:0.20009557;stroke:blue;stroke-miterlimit:4;stroke-dasharray:none"
     id="polygon9748" />
  <polygon
     points="8.100,108.600 8.363,108.642 8.600,108.762 8.788,108.950 8.908,109.187 8.950,109.450 8.908,109.713 8.788,109.950 8.600,110.138 8.363,110.258 8.100,110.300 7.837,110.258 7.600,110.138 7.412,109.950 7.292,109.713 7.250,109.450 7.292,109.187 7.412,108.950 7.600,108.762 7.837,108.642"
     style="fill:none;stroke-width:0.20009557;stroke:blue;stroke-miterlimit:4;stroke-dasharray:none"
     id="polygon9750" />
  <polygon
     points="8.100,7.250 8.363,7.292 8.600,7.412 8.788,7.600 8.908,7.837 8.950,8.100 8.908,8.363 8.788,8.600 8.600,8.788 8.363,8.908 8.100,8.950 7.837,8.908 7.600,8.788 7.412,8.600 7.292,8.363 7.250,8.100 7.292,7.837 7.412,7.600 7.600,7.412 7.837,7.292"
     style="fill:none;stroke-width:0.20009557;stroke:blue;stroke-miterlimit:4;stroke-dasharray:none"
     id="polygon9752" />
  <polygon
     transform="translate(-39.449961,9.5993131e-5)"
     points="167.1,8.788 166.863,8.908 166.6,8.95 166.337,8.908 166.1,8.788 165.912,8.6 165.792,8.363 165.75,8.1 165.792,7.837 165.912,7.6 166.1,7.412 166.337,7.292 166.6,7.25 166.863,7.292 167.1,7.412 167.288,7.6 167.408,7.837 167.45,8.1 167.408,8.363 167.288,8.6 "
     style="fill:none;stroke:#0000ff;stroke-width:0.20009557;stroke-miterlimit:4;stroke-dasharray:none"
     id="polygon9746-7" />
  <polygon
     transform="translate(-116.04987,9.5993131e-5)"
     points="166.863,8.908 166.6,8.95 166.337,8.908 166.1,8.788 165.912,8.6 165.792,8.363 165.75,8.1 165.792,7.837 165.912,7.6 166.1,7.412 166.337,7.292 166.6,7.25 166.863,7.292 167.1,7.412 167.288,7.6 167.408,7.837 167.45,8.1 167.408,8.363 167.288,8.6 167.1,8.788 "
     style="fill:none;stroke:#0000ff;stroke-width:0.20009557;stroke-miterlimit:4;stroke-dasharray:none"
     id="polygon9746-4" />
</svg>
