<?xml version="1.0"?>
<!-- Generated by SVGo -->
<svg width="174.700mm" height="117.550mm"
     viewBox="0.000 0.000 174.700 117.550"
     xmlns="http://www.w3.org/2000/svg" 
     xmlns:xlink="http://www.w3.org/1999/xlink">
<polygon points="167.700,5.000 167.857,5.006 168.013,5.025 168.167,5.055 168.318,5.098 168.465,5.152 168.608,5.218 168.745,5.295 168.876,5.382 168.999,5.479 169.114,5.586 169.221,5.701 169.318,5.824 169.405,5.955 169.482,6.092 169.548,6.235 169.602,6.382 169.645,6.533 169.675,6.687 169.694,6.843 169.700,7.000 169.700,110.550 169.694,110.707 169.675,110.863 169.645,111.017 169.602,111.168 169.548,111.315 169.482,111.458 169.405,111.595 169.318,111.726 169.221,111.849 169.114,111.964 168.999,112.071 168.876,112.168 168.745,112.255 168.608,112.332 168.465,112.398 168.318,112.452 168.167,112.495 168.013,112.525 167.857,112.544 167.700,112.550 7.000,112.550 6.843,112.544 6.687,112.525 6.533,112.495 6.382,112.452 6.235,112.398 6.092,112.332 5.955,112.255 5.824,112.168 5.701,112.071 5.586,111.964 5.479,111.849 5.382,111.726 5.295,111.595 5.218,111.458 5.152,111.315 5.098,111.168 5.055,111.017 5.025,110.863 5.006,110.707 5.000,110.550 5.000,7.000 5.006,6.843 5.025,6.687 5.055,6.533 5.098,6.382 5.152,6.235 5.218,6.092 5.295,5.955 5.382,5.824 5.479,5.701 5.586,5.586 5.701,5.479 5.824,5.382 5.955,5.295 6.092,5.218 6.235,5.152 6.382,5.098 6.533,5.055 6.687,5.025 6.843,5.006 7.000,5.000" style="fill:none;stroke-width:0.2;stroke:blue"/>
<polygon points="166.600,7.250 166.863,7.292 167.100,7.412 167.288,7.600 167.408,7.837 167.450,8.100 167.408,8.363 167.288,8.600 167.100,8.788 166.863,8.908 166.600,8.950 166.337,8.908 166.100,8.788 165.912,8.600 165.792,8.363 165.750,8.100 165.792,7.837 165.912,7.600 166.100,7.412 166.337,7.292" style="fill:none;stroke-width:0.2;stroke:blue"/>
<polygon points="166.600,108.600 166.863,108.642 167.100,108.762 167.288,108.950 167.408,109.187 167.450,109.450 167.408,109.713 167.288,109.950 167.100,110.138 166.863,110.258 166.600,110.300 166.337,110.258 166.100,110.138 165.912,109.950 165.792,109.713 165.750,109.450 165.792,109.187 165.912,108.950 166.100,108.762 166.337,108.642" style="fill:none;stroke-width:0.2;stroke:blue"/>
<polygon points="8.100,108.600 8.363,108.642 8.600,108.762 8.788,108.950 8.908,109.187 8.950,109.450 8.908,109.713 8.788,109.950 8.600,110.138 8.363,110.258 8.100,110.300 7.837,110.258 7.600,110.138 7.412,109.950 7.292,109.713 7.250,109.450 7.292,109.187 7.412,108.950 7.600,108.762 7.837,108.642" style="fill:none;stroke-width:0.2;stroke:blue"/>
<polygon points="8.100,7.250 8.363,7.292 8.600,7.412 8.788,7.600 8.908,7.837 8.950,8.100 8.908,8.363 8.788,8.600 8.600,8.788 8.363,8.908 8.100,8.950 7.837,8.908 7.600,8.788 7.412,8.600 7.292,8.363 7.250,8.100 7.292,7.837 7.412,7.600 7.600,7.412 7.837,7.292" style="fill:none;stroke-width:0.2;stroke:blue"/>
<polygon points="13.725,27.525 13.725,13.725 27.525,13.725 27.525,27.525" style="fill:none;stroke-width:0.2;stroke:blue"/>
<polygon points="13.725,46.575 13.725,32.775 27.525,32.775 27.525,46.575" style="fill:none;stroke-width:0.2;stroke:blue"/>
<polygon points="13.725,65.625 13.725,51.825 27.525,51.825 27.525,65.625" style="fill:none;stroke-width:0.2;stroke:blue"/>
<polygon points="13.725,84.675 13.725,70.875 27.525,70.875 27.525,84.675" style="fill:none;stroke-width:0.2;stroke:blue"/>
<polygon points="20.869,103.725 20.869,89.925 34.669,89.925 34.669,103.725" style="fill:none;stroke-width:0.2;stroke:blue"/>
<polygon points="32.775,27.525 32.775,13.725 46.575,13.725 46.575,27.525" style="fill:none;stroke-width:0.2;stroke:blue"/>
<polygon points="32.775,46.575 32.775,32.775 46.575,32.775 46.575,46.575" style="fill:none;stroke-width:0.2;stroke:blue"/>
<polygon points="32.775,65.625 32.775,51.825 46.575,51.825 46.575,65.625" style="fill:none;stroke-width:0.2;stroke:blue"/>
<polygon points="32.775,84.675 32.775,70.875 46.575,70.875 46.575,84.675" style="fill:none;stroke-width:0.2;stroke:blue"/>
<polygon points="47.062,103.725 47.062,89.925 60.862,89.925 60.862,103.725" style="fill:none;stroke-width:0.2;stroke:blue"/>
<polygon points="51.825,27.525 51.825,13.725 65.625,13.725 65.625,27.525" style="fill:none;stroke-width:0.2;stroke:blue"/>
<polygon points="51.825,46.575 51.825,32.775 65.625,32.775 65.625,46.575" style="fill:none;stroke-width:0.2;stroke:blue"/>
<polygon points="51.825,65.625 51.825,51.825 65.625,51.825 65.625,65.625" style="fill:none;stroke-width:0.2;stroke:blue"/>
<polygon points="51.825,84.675 51.825,70.875 65.625,70.875 65.625,84.675" style="fill:none;stroke-width:0.2;stroke:blue"/>
<polygon points="70.875,27.525 70.875,13.725 84.675,13.725 84.675,27.525" style="fill:none;stroke-width:0.2;stroke:blue"/>
<polygon points="70.875,46.575 70.875,32.775 84.675,32.775 84.675,46.575" style="fill:none;stroke-width:0.2;stroke:blue"/>
<polygon points="70.875,65.625 70.875,51.825 84.675,51.825 84.675,65.625" style="fill:none;stroke-width:0.2;stroke:blue"/>
<polygon points="70.875,84.675 70.875,70.875 84.675,70.875 84.675,84.675" style="fill:none;stroke-width:0.2;stroke:blue"/>
<polygon points="70.875,103.725 70.875,89.925 84.675,89.925 84.675,103.725" style="fill:none;stroke-width:0.2;stroke:blue"/>
<polygon points="89.925,27.525 89.925,13.725 103.725,13.725 103.725,27.525" style="fill:none;stroke-width:0.2;stroke:blue"/>
<polygon points="89.925,46.575 89.925,32.775 103.725,32.775 103.725,46.575" style="fill:none;stroke-width:0.2;stroke:blue"/>
<polygon points="89.925,65.625 89.925,51.825 103.725,51.825 103.725,65.625" style="fill:none;stroke-width:0.2;stroke:blue"/>
<polygon points="89.925,84.675 89.925,70.875 103.725,70.875 103.725,84.675" style="fill:none;stroke-width:0.2;stroke:blue"/>
<polygon points="94.688,103.725 94.688,89.925 108.488,89.925 108.488,103.725" style="fill:none;stroke-width:0.2;stroke:blue"/>
<polygon points="108.975,27.525 108.975,13.725 122.775,13.725 122.775,27.525" style="fill:none;stroke-width:0.2;stroke:blue"/>
<polygon points="108.975,46.575 108.975,32.775 122.775,32.775 122.775,46.575" style="fill:none;stroke-width:0.2;stroke:blue"/>
<polygon points="108.975,65.625 108.975,51.825 122.775,51.825 122.775,65.625" style="fill:none;stroke-width:0.2;stroke:blue"/>
<polygon points="108.975,84.675 108.975,70.875 122.775,70.875 122.775,84.675" style="fill:none;stroke-width:0.2;stroke:blue"/>
<polygon points="120.881,103.725 120.881,89.925 134.681,89.925 134.681,103.725" style="fill:none;stroke-width:0.2;stroke:blue"/>
<polygon points="128.025,27.525 128.025,13.725 141.825,13.725 141.825,27.525" style="fill:none;stroke-width:0.2;stroke:blue"/>
<polygon points="128.025,46.575 128.025,32.775 141.825,32.775 141.825,46.575" style="fill:none;stroke-width:0.2;stroke:blue"/>
<polygon points="128.025,65.625 128.025,51.825 141.825,51.825 141.825,65.625" style="fill:none;stroke-width:0.2;stroke:blue"/>
<polygon points="128.025,84.675 128.025,70.875 141.825,70.875 141.825,84.675" style="fill:none;stroke-width:0.2;stroke:blue"/>
<polygon points="147.075,27.525 147.075,13.725 160.875,13.725 160.875,27.525" style="fill:none;stroke-width:0.2;stroke:blue"/>
</svg>
